<svg width="514" height="488" viewBox="0 0 514 488" fill="none" xmlns="http://www.w3.org/2000/svg">
<path fill-rule="evenodd" clip-rule="evenodd" d="M269.834 2.77488C325.948 11.0455 366.325 49.798 406.026 84.5545C439.396 113.769 461.958 148.21 479.33 186.181C497.801 226.552 524.963 269.14 509.342 310.373C493.713 351.629 440.142 369.949 399.723 396.314C357.978 423.545 322.241 462.862 269.834 466.606C215.931 470.457 164.672 445.516 123.074 416.081C83.3872 387.998 62.7419 347.512 43.786 306.65C23.5207 262.966 1.19342 218.618 9.95836 172.247C19.6345 121.055 46.0948 70.1622 94.4466 38.6306C143.373 6.7243 209.104 -6.17606 269.834 2.77488Z" fill="#424040"/>
<path fill-rule="evenodd" clip-rule="evenodd" d="M261.834 23.7749C317.948 32.0455 358.325 70.798 398.026 105.554C431.396 134.769 453.958 169.21 471.33 207.181C489.801 247.552 516.963 290.14 501.342 331.373C485.713 372.629 432.142 390.949 391.723 417.314C349.978 444.545 314.241 483.862 261.834 487.606C207.931 491.457 156.672 466.516 115.074 437.081C75.3872 408.998 54.7419 368.512 35.786 327.65C15.5207 283.966 -6.80658 239.618 1.95836 193.247C11.6345 142.055 38.0948 91.1622 86.4466 59.6306C135.373 27.7243 201.104 14.8239 261.834 23.7749Z" fill="#1D1818" fill-opacity="0.38"/>
</svg>
