<svg width="130" height="129" viewBox="0 0 130 129" fill="none" xmlns="http://www.w3.org/2000/svg">
<ellipse cx="65" cy="64.5" rx="65" ry="64.5" fill="#D7D7D7"/>
<path d="M66 118C95.2711 118 119 94.2711 119 65C119 35.7289 95.2711 12 66 12C36.7289 12 13 35.7289 13 65C13 94.2711 36.7289 118 66 118Z" fill="#F2F2F2"/>
<path d="M66 26C67.6569 26 69 24.6569 69 23C69 21.3431 67.6569 20 66 20C64.3431 20 63 21.3431 63 23C63 24.6569 64.3431 26 66 26Z" fill="black" fill-opacity="0.1"/>
<path d="M24 68C25.6569 68 27 66.6569 27 65C27 63.3431 25.6569 62 24 62C22.3431 62 21 63.3431 21 65C21 66.6569 22.3431 68 24 68Z" fill="black" fill-opacity="0.1"/>
<path d="M108 68C109.657 68 111 66.6569 111 65C111 63.3431 109.657 62 108 62C106.343 62 105 63.3431 105 65C105 66.6569 106.343 68 108 68Z" fill="black" fill-opacity="0.1"/>
<path d="M66 110C67.6569 110 69 108.657 69 107C69 105.343 67.6569 104 66 104C64.3431 104 63 105.343 63 107C63 108.657 64.3431 110 66 110Z" fill="black" fill-opacity="0.1"/>
<path fill-rule="evenodd" clip-rule="evenodd" d="M66 29L68 64H64L66 29Z" fill="#AFB9C5"/>
<path fill-rule="evenodd" clip-rule="evenodd" d="M83.6986 82.6985L65.3138 67.1422L68.1422 64.3137L83.6986 82.6985Z" fill="#AFB9C5"/>
<path d="M66 69C68.2091 69 70 67.2091 70 65C70 62.7909 68.2091 61 66 61C63.7909 61 62 62.7909 62 65C62 67.2091 63.7909 69 66 69Z" fill="#C5CFD6"/>
</svg>
