<svg width="24" height="23" viewBox="0 0 24 23" fill="none" xmlns="http://www.w3.org/2000/svg">
<path fill-rule="evenodd" clip-rule="evenodd" d="M12 0C5.37197 0 0 5.27845 0 11.7911C0 16.9998 3.43734 21.42 8.20654 22.9805C8.8069 23.0869 9.02346 22.7239 9.02346 22.4118C9.02346 22.1317 9.01384 21.3892 9.01023 20.4068C5.67155 21.1185 4.96651 18.8251 4.96651 18.8251C4.4227 17.4632 3.63465 17.1003 3.63465 17.1003C2.54582 16.3685 3.71767 16.3851 3.71767 16.3851C4.9232 16.4678 5.55484 17.6003 5.55484 17.6003C6.62563 19.402 8.36535 18.8818 9.04632 18.5804C9.1558 17.8179 9.46862 17.2977 9.81031 17.0033C7.14658 16.7066 4.3457 15.6947 4.3457 11.1752C4.3457 9.89015 4.81372 8.83564 5.5777 8.01284C5.45619 7.71375 5.04111 6.51383 5.69681 4.89187C5.69681 4.89187 6.70383 4.57387 8.99579 6.09888C9.95588 5.83762 10.9797 5.7064 11.9988 5.70167C13.0203 5.7064 14.0453 5.83762 15.0018 6.09888C17.295 4.57269 18.3008 4.89187 18.3008 4.89187C18.9565 6.51383 18.545 7.71375 18.4199 8.01284C19.1899 8.83564 19.6519 9.88896 19.6519 11.1752C19.6519 15.7065 16.8486 16.7019 14.1753 16.9939C14.6024 17.358 14.9874 18.0768 14.9874 19.1762C14.9874 20.7532 14.9729 22.0253 14.9729 22.4118C14.9729 22.7275 15.1871 23.094 15.7995 22.9781C20.5663 21.4153 24 16.9986 24 11.7911C24 5.27845 18.628 0 12 0Z" fill="white"/>
</svg>
