<svg width="844" height="607" viewBox="0 0 844 607" fill="none" xmlns="http://www.w3.org/2000/svg">
<path fill-rule="evenodd" clip-rule="evenodd" d="M473.653 7.94324C574.449 7.29386 699.372 -19.0708 766.929 27.989C836.787 76.652 766.497 154.572 777.725 219.758C785.714 266.142 835.591 307.327 822.962 353.301C809.185 403.457 762.107 446.272 705.511 482.65C639.344 525.179 567.168 586.809 473.653 577.821C377.714 568.601 363.24 481.196 288.127 442.535C220.257 407.602 111.794 411.484 62.141 366.015C6.11421 314.708 -13.2215 247.593 9.01807 186.941C32.2789 123.504 96.4512 65.7413 184.71 31.74C269.624 -0.972573 374.086 8.58471 473.653 7.94324Z" fill="#424040"/>
<path fill-rule="evenodd" clip-rule="evenodd" d="M484.562 36.2395C587.678 35.5901 715.478 9.22545 784.591 56.2853C856.058 104.948 784.149 182.868 795.636 248.055C803.809 294.439 854.835 335.623 841.915 381.597C827.821 431.754 779.659 474.569 721.76 510.946C654.069 553.475 580.23 615.105 484.562 606.117C386.413 596.897 371.605 509.492 294.763 470.831C225.329 435.898 114.369 439.781 63.5721 394.311C6.25503 343.005 -13.526 275.89 9.22576 215.237C33.0222 151.8 98.6725 94.0375 188.964 60.0362C275.834 27.3237 382.701 36.8809 484.562 36.2395Z" fill="#1D1818" fill-opacity="0.38"/>
<path fill-rule="evenodd" clip-rule="evenodd" d="M770.075 340.638L745.26 410.688L727.867 462.319H717.949L741.858 340.638L770.075 340.638Z" fill="#1F28CF"/>
<path fill-rule="evenodd" clip-rule="evenodd" d="M776.208 340.638C776.477 364.673 776.282 397.034 776.911 398.532C777.33 399.531 790.362 410.911 816.007 432.673L810.895 441.947C780.448 421 764.447 409.131 762.89 406.34C760.555 402.154 748.825 363.632 742.722 340.638H776.208Z" fill="#2B44FF"/>
<path fill-rule="evenodd" clip-rule="evenodd" d="M825 439.019L816.26 431.902L809.331 440.723C808.848 447.418 806.827 454.913 803.269 463.207L804.871 464.642L817.41 448.68L820.899 442.502L821.7 443.22L825 439.019Z" fill="#191847"/>
<path fill-rule="evenodd" clip-rule="evenodd" d="M728.786 472.23L728.27 460.667H717.432C712.293 464.521 705.584 467.641 697.305 470.027V472.23H716.916L723.625 471.129V472.23H728.786Z" fill="#191847"/>
<path fill-rule="evenodd" clip-rule="evenodd" d="M766.333 263.27C768.557 260.57 770.062 257.261 769.811 253.554C769.086 242.872 754.707 245.221 751.91 250.613C749.112 256.004 749.445 269.68 753.06 270.644C754.501 271.028 757.573 270.087 760.698 268.139L758.736 282.492H770.321L766.333 263.27Z" fill="#B28B67"/>
<path fill-rule="evenodd" clip-rule="evenodd" d="M757.019 251.395C758.591 252.304 759.71 254.008 761.056 256.243C761.384 256.11 761.742 256.037 762.115 256.037C763.715 256.037 765.012 257.378 765.012 259.032C765.012 259.872 764.677 260.631 764.139 261.174C764.809 262.152 765.56 263.174 766.421 264.229C769.632 262.236 772.021 256.429 768.955 250.823C766.316 239.593 751.367 246.563 748.491 244.669C747.862 248.744 749.89 252.03 757.019 251.395Z" fill="#191847"/>
<rect x="206.387" y="108.056" width="510.782" height="340.456" rx="20" fill="#EBE1E1"/>
<rect x="218.447" y="150.135" width="486.661" height="280.016" rx="10" fill="white"/>
<path fill-rule="evenodd" clip-rule="evenodd" d="M160.056 244.538C157.584 241.546 155.911 237.878 156.19 233.768C156.996 221.926 172.977 224.531 176.085 230.508C179.194 236.485 178.824 251.645 174.807 252.713C173.205 253.139 169.791 252.096 166.318 249.936L168.498 265.848H155.624L160.056 244.538Z" fill="#B28B67"/>
<path fill-rule="evenodd" clip-rule="evenodd" d="M164.062 238.107C163.64 237.808 163.137 237.627 162.597 237.627C161.116 237.627 159.915 238.99 159.915 240.394C159.915 241.855 160.584 242.984 161.539 243.463C161.029 244.492 160.516 245.238 159.915 245.374C157.597 245.132 154.551 239.188 154.551 234.307C154.551 228.965 158.671 224.347 166.352 224.347C173.256 224.347 175.873 227.283 176.008 229.88C173.05 230.719 167.881 231.042 160.451 230.987V231.54L166.889 232.094L167.962 235.414C166.255 235.282 165.035 236.49 164.062 238.107Z" fill="#191847"/>
<path fill-rule="evenodd" clip-rule="evenodd" d="M147.04 330.035L166.489 400.435L180.679 452.324H191.028L175.949 330.035H147.04Z" fill="#191847"/>
<path fill-rule="evenodd" clip-rule="evenodd" d="M141.839 330.035C141.39 366.32 139.856 386.111 139.383 389.408C138.911 392.704 131.769 413.676 117.958 452.324H128.68C146.262 415.248 156.077 394.276 158.125 389.408C160.172 384.539 166.491 364.748 176.008 330.035H141.839Z" fill="#2F3676"/>
<path fill-rule="evenodd" clip-rule="evenodd" d="M117 462.284L117.536 450.664H128.802C134.143 454.537 141.117 457.673 149.723 460.07V462.284H129.338L122.364 461.177V462.284H117Z" fill="#191847"/>
<path fill-rule="evenodd" clip-rule="evenodd" d="M179.227 462.284L179.763 450.664H191.028C196.37 454.537 203.344 457.673 211.95 460.07V462.284H191.565L184.591 461.177V462.284H179.227Z" fill="#191847"/>
<path fill-rule="evenodd" clip-rule="evenodd" d="M179.449 281.175L198.069 270.656C201.165 266.863 204.216 263.918 207.221 261.819C208.139 261.424 209.745 261.184 208.243 263.934C206.742 266.683 205.282 269.645 206.047 270.492C206.812 271.339 208.72 270.156 209.633 271.563C210.241 272.502 206.982 273.984 199.855 276.01L186.325 288.788L179.449 281.175ZM208.611 290.051L216.79 285.416C217.937 280.912 219.309 278.645 220.905 278.617C222.131 278.029 219.996 283.72 222.32 283.227C224.645 282.733 230.318 278.381 231.295 279.265C232.741 280.572 231.452 284.586 229.933 286.583C227.093 290.315 224.742 291.591 218.931 293.263C215.893 294.136 212.608 295.888 209.077 298.517L208.611 290.051Z" fill="#997659"/>
<path fill-rule="evenodd" clip-rule="evenodd" d="M170.381 278.832C176.903 278.761 185.6 277.34 194.879 271.264L198.524 279.647C192.123 286.2 183.123 291.583 175.253 291.355C169.051 291.176 165.882 283.438 170.381 278.832Z" fill="#2026A2"/>
<path fill-rule="evenodd" clip-rule="evenodd" d="M179.163 292.276C186.086 294.057 197.697 291.957 213.995 285.975C218.037 294.601 219.906 300.751 219.601 304.425C205.62 311.958 193.637 315.317 183.765 315.538C184.079 321.581 183.366 327.33 180.97 332.584C176.046 343.384 147.213 333.382 137.518 335.351C131.447 315.013 143.186 306.747 143.195 293.734C143.206 279.483 154.299 257.547 155.931 257.547L170.815 257.547C171.637 268.431 175.77 280.426 179.163 292.276Z" fill="#94F6E4"/>
<ellipse cx="224.832" cy="128.331" rx="4.96594" ry="4.97297" fill="#E25757"/>
<ellipse cx="243.276" cy="128.331" rx="4.96594" ry="4.97297" fill="#FFCC80"/>
<ellipse cx="261.722" cy="128.331" rx="4.96594" ry="4.97297" fill="#A6F18C"/>
<path d="M218.447 160.135C218.447 154.612 222.924 150.135 228.447 150.135H695.108C700.631 150.135 705.108 154.612 705.108 160.135V179.973H218.447V160.135Z" fill="#29345E"/>
<rect x="266.688" y="306.975" width="384.505" height="12.2411" rx="6.12057" fill="#E1DDDD"/>
<rect x="266.688" y="345.228" width="200.056" height="12.2411" rx="6.12054" fill="#E1DDDD"/>
<rect x="266.688" y="378.891" width="200.056" height="12.2411" rx="6.12055" fill="#E1DDDD"/>
<rect x="492.283" y="345.228" width="158.91" height="12.2411" rx="6.12054" fill="#E1DDDD"/>
<rect x="406.443" y="212.871" width="231.98" height="12.2411" rx="6.12055" fill="#E1DDDD"/>
<rect x="406.443" y="245.004" width="231.98" height="12.2411" rx="6.12057" fill="#E1DDDD"/>
<rect x="406.443" y="276.372" width="231.98" height="12.2411" rx="6.12057" fill="#E1DDDD"/>
<rect x="492.283" y="378.891" width="158.91" height="12.2411" rx="6.12055" fill="#E1DDDD"/>
<rect x="266.688" y="202.16" width="114.216" height="76.507" fill="#E9E4E4"/>
<path fill-rule="evenodd" clip-rule="evenodd" d="M732.733 328.039L716.686 341.431C712.334 342.766 708.698 344.426 705.778 346.413C705.088 347.127 704.255 348.574 707.115 348.324C709.976 348.074 712.995 347.957 713.389 349.066C713.784 350.175 712.053 351.501 712.851 352.997C713.383 353.994 715.896 351.493 720.39 345.494L736.28 338.005L732.733 328.039ZM794.344 328.501L783.832 328.548C790.323 352.363 793.827 364.998 794.344 366.456C795.508 369.734 793.045 374.727 791.992 377.411C795.422 379.155 795.057 372.694 799.385 374.982C803.335 377.071 806.34 380.855 810.904 377.655C811.465 377.261 812.08 375.78 810.595 374.622C806.893 371.738 801.559 366.689 800.839 365.028C799.856 362.762 797.691 350.586 794.344 328.501Z" fill="#B28B67"/>
<path fill-rule="evenodd" clip-rule="evenodd" d="M764.469 278.369L760.119 277.521C743.979 293.366 737.35 323.807 717.566 339.933L722.328 346.641C756.649 341.811 765.155 304.681 764.469 278.369Z" fill="#E87613"/>
<path fill-rule="evenodd" clip-rule="evenodd" d="M783.431 340.496C765.99 340.496 753.16 340.496 744.942 340.496C743.183 340.496 743.514 337.61 743.769 336.154C746.703 319.345 758.157 301.226 758.157 277.299L769.259 275.32C778.442 292.105 781.618 312.77 783.431 340.496Z" fill="#DDE3E9"/>
<path fill-rule="evenodd" clip-rule="evenodd" d="M783.122 291.819C784.735 291.292 786.012 290.063 786.953 288.133C791.011 279.812 789.545 275.23 785.209 273.724C780.872 272.218 777.005 275.32 770.096 275.32C769.72 275.32 769.376 275.347 769.063 275.4L765.587 275.626C755.616 314.034 752.865 339.66 757.337 352.502H787.631C789.426 357.259 791.144 361.261 792.784 364.509H801.039C801.816 335.961 795.843 311.731 783.122 291.819Z" fill="#FF9B21"/>
<path fill-rule="evenodd" clip-rule="evenodd" d="M781.035 332.777C780.082 341.836 778.533 348.412 776.389 352.502H787.631C785.538 346.954 783.339 340.379 781.035 332.777Z" fill="black" fill-opacity="0.1"/>
</svg>
