<svg width="24" height="23" viewBox="0 0 24 23" fill="none" xmlns="http://www.w3.org/2000/svg">
<path d="M22.6667 0H1.33333C0.596 0 0 0.572444 0 1.27778V21.7222C0 22.4276 0.596 23 1.33333 23H22.6667C23.404 23 24 22.4276 24 21.7222V1.27778C24 0.572444 23.404 0 22.6667 0ZM7.11867 19.5973H3.556V8.62117H7.11867V19.5973ZM5.33733 7.12233C4.196 7.12233 3.27333 6.23556 3.27333 5.14433C3.27333 4.05311 4.19467 3.16633 5.33733 3.16633C6.476 3.16633 7.40133 4.05183 7.40133 5.14433C7.40133 6.23683 6.476 7.12233 5.33733 7.12233ZM20.4507 19.5973H16.892V14.26C16.892 12.9873 16.868 11.3505 15.0413 11.3505C13.188 11.3505 12.9067 12.7382 12.9067 14.1706V19.5986H9.35067V8.62245H12.764V10.1226H12.8133C13.2867 9.26006 14.4493 8.35028 16.1787 8.35028C19.784 8.35028 20.4493 10.6222 20.4493 13.5789L20.4507 19.5973Z" fill="white"/>
</svg>
