<svg width="26" height="25" viewBox="0 0 26 25" fill="none" xmlns="http://www.w3.org/2000/svg">
<path d="M21.2692 8.33027C21.2832 8.51256 21.2832 8.69381 21.2832 8.87506C21.2832 14.4219 16.8925 20.8136 8.86825 20.8136C6.39608 20.8136 4.09941 20.1251 2.16675 18.9292C2.51775 18.9678 2.85575 18.9813 3.22083 18.9813C5.26075 18.9813 7.13816 18.3188 8.63858 17.1886C6.72 17.1501 5.11233 15.9417 4.55766 14.2792C4.82741 14.3178 5.09825 14.3438 5.38208 14.3438C5.77316 14.3438 6.16641 14.2917 6.5315 14.2011C4.53058 13.8115 3.03233 12.123 3.03233 10.0834V10.0313C3.61408 10.3428 4.289 10.5376 5.004 10.5636C3.82858 9.81152 3.05833 8.52506 3.05833 7.06986C3.05833 6.29069 3.27391 5.57611 3.652 4.95319C5.80025 7.49798 9.02966 9.16152 12.6502 9.34381C12.583 9.03131 12.5418 8.70736 12.5418 8.38236C12.5418 6.06986 14.4875 4.18652 16.9055 4.18652C18.1622 4.18652 19.2964 4.69277 20.0937 5.51152C21.0796 5.32923 22.0242 4.97819 22.8627 4.49798C22.5388 5.47194 21.8487 6.29069 20.9442 6.81048C21.8227 6.71881 22.6742 6.48548 23.4564 6.16048C22.8627 6.99173 22.1207 7.73236 21.2692 8.33027Z" fill="white"/>
</svg>
